# xmcd CD database file
#
# Track frame offsets:
#	150
#	19425
#	36505
#	55727
#
# Disc length: 968 seconds
#
# Revision: 5
# Processed by: cddbd v1.5PL3 Copyright (c) Steve Scherf et al.
# Submitted via: CDex 1.40Beta9
#
DISCID=3203c604
DTITLE=avex - 仮面ライダー5553rdED
DYEAR=2003
DGENRE=Vocal
TTITLE0=EGO〜eyes glazing over
TTITLE1=DELTA STRIP〜White Ring
TTITLE2=EGO〜eyes glazing over (instrumental)
TTITLE3=DELTA STRIP〜White Ring (instrumental)
EXTD=YEAR: 2003 ID3G: 28
EXTT0=
EXTT1=
EXTT2=
EXTT3=
PLAYORDER=
